<svg xmlns="http://www.w3.org/2000/svg" version="1.1" xmlns:xlink="http://www.w3.org/1999/xlink" xmlns:svgjs="http://svgjs.dev/svgjs" width="1440" height="560" preserveAspectRatio="none" viewBox="0 0 1440 560"><g mask="url(&quot;#SvgjsMask1024&quot;)" fill="none"><rect width="1440" height="560" x="0" y="0" fill="rgba(244, 241, 240, 1)"></rect><path d="M1261.1,327.451C1282.939,326.861,1300.944,311.941,1311.49,292.808C1321.641,274.393,1323.851,251.746,1312.633,233.962C1302.024,217.143,1280.969,212.107,1261.1,212.922C1242.821,213.672,1226.573,222.702,1216.403,237.909C1204.739,255.349,1196.392,276.892,1205.763,295.664C1215.946,316.064,1238.308,328.067,1261.1,327.451" fill="rgba(48, 103, 92, 1)" class="triangle-float3"></path><path d="M351.654,305.941C392.906,306.814,439.446,303.258,460.698,267.891C482.36,231.842,467.523,186.533,444.589,151.279C423.935,119.531,389.519,101.139,351.654,100.271C312.052,99.363,271.93,113.189,251.031,146.84C229.053,182.229,228.05,228.234,250.317,263.442C271.302,296.622,312.404,305.111,351.654,305.941" fill="rgba(48, 103, 92, 1)" class="triangle-float3"></path><path d="M1383.124,568.494C1436.903,571.973,1490.179,542.912,1514.851,495C1537.925,450.192,1519.939,398.09,1492.714,355.676C1468.036,317.23,1428.809,289.89,1383.124,289.784C1337.262,289.678,1294.876,315.048,1272.654,355.167C1251.081,394.113,1257.47,440.139,1277.943,479.674C1300.56,523.349,1334.043,565.319,1383.124,568.494" fill="rgba(48, 103, 92, 1)" class="triangle-float3"></path><path d="M547.955,61.865C574.91,63.732,605.039,61.509,620.06,39.049C636.383,14.641,633.755,-18.235,618.164,-43.117C603.455,-66.592,575.598,-77.851,547.955,-76.027C523.221,-74.395,503.817,-56.67,492.146,-34.802C481.222,-14.335,479.697,10.038,491.297,30.13C502.897,50.223,524.809,60.262,547.955,61.865" fill="rgba(48, 103, 92, 1)" class="triangle-float2"></path><path d="M657.736,316.37C694.751,316.59,730.662,299.877,749.31,267.902C768.09,235.7,765.859,195.649,746.838,163.589C728.21,132.191,694.175,111.309,657.736,113.557C624.351,115.617,602.737,144.656,585.841,173.523C568.699,202.81,552.773,236.512,568.029,266.824C584.489,299.527,621.125,316.152,657.736,316.37" fill="rgba(48, 103, 92, 1)" class="triangle-float1"></path><path d="M765.755,511.508C784.682,512.138,802.806,502.894,812.582,486.675C822.676,469.928,824.095,448.521,813.707,431.955C803.849,416.234,784.305,412.475,765.755,412C746.036,411.495,723.271,412.335,713.353,429.385C703.404,446.488,713.389,467.048,724.032,483.728C733.665,498.824,747.857,510.912,765.755,511.508" fill="rgba(48, 103, 92, 1)" class="triangle-float3"></path><path d="M370.22,538.638C382.779,538.689,394.615,533.19,401.566,522.73C409.4,510.94,413.464,495.998,406.88,483.467C399.909,470.199,385.176,462.086,370.22,463.07C356.59,463.967,347.364,475.68,341.06,487.797C335.334,498.803,333.14,511.715,339.312,522.477C345.512,533.286,357.759,538.587,370.22,538.638" fill="rgba(48, 103, 92, 1)" class="triangle-float3"></path><path d="M950.086,357.394C998.047,358.007,1042.645,334.439,1068.429,293.994C1096.425,250.079,1108.346,194.427,1082.972,148.946C1057.062,102.504,1003.227,79.802,950.086,81.869C900.396,83.802,857.645,114.898,833.974,158.631C811.452,200.241,813.005,250.179,836.871,291.033C860.52,331.516,903.206,356.795,950.086,357.394" fill="rgba(48, 103, 92, 1)" class="triangle-float3"></path><path d="M76.093,516.713C115.763,515.667,139.425,477.462,159.273,443.098C179.129,408.719,201.569,368.472,181.496,334.219C161.542,300.169,115.558,300.825,76.093,301.159C37.467,301.486,-5.866,303.177,-26.267,335.977C-47.453,370.04,-34.819,412.791,-15.051,447.696C5.078,483.237,35.262,517.79,76.093,516.713" fill="rgba(48, 103, 92, 1)" class="triangle-float1"></path></g><defs><mask id="SvgjsMask1024"><rect width="1440" height="560" fill="#ffffff"></rect></mask><style>
                @keyframes float1 {
                    0%{transform: translate(0, 0)}
                    50%{transform: translate(-10px, 0)}
                    100%{transform: translate(0, 0)}
                }

                .triangle-float1 {
                    animation: float1 5s infinite;
                }

                @keyframes float2 {
                    0%{transform: translate(0, 0)}
                    50%{transform: translate(-5px, -5px)}
                    100%{transform: translate(0, 0)}
                }

                .triangle-float2 {
                    animation: float2 4s infinite;
                }

                @keyframes float3 {
                    0%{transform: translate(0, 0)}
                    50%{transform: translate(0, -10px)}
                    100%{transform: translate(0, 0)}
                }

                .triangle-float3 {
                    animation: float3 6s infinite;
                }
            </style></defs></svg>